<?xml version="1.0" encoding="UTF-8" standalone="no"?>
<svg
   xmlns:dc="http://purl.org/dc/elements/1.1/"
   xmlns:cc="http://creativecommons.org/ns#"
   xmlns:rdf="http://www.w3.org/1999/02/22-rdf-syntax-ns#"
   xmlns:svg="http://www.w3.org/2000/svg"
   xmlns="http://www.w3.org/2000/svg"
   xmlns:sodipodi="http://sodipodi.sourceforge.net/DTD/sodipodi-0.dtd"
   xmlns:inkscape="http://www.inkscape.org/namespaces/inkscape"
   width="50px"
   height="50px"
   viewBox="0 0 50 50"
   version="1.1"
   id="svg94"
   sodipodi:docname="bfks.svg"
   inkscape:version="1.0 (4035a4fb49, 2020-05-01)">
  <metadata
     id="metadata98">
    <rdf:RDF>
      <cc:Work
         rdf:about="">
        <dc:format>image/svg+xml</dc:format>
        <dc:type
           rdf:resource="http://purl.org/dc/dcmitype/StillImage" />
        <dc:title></dc:title>
      </cc:Work>
    </rdf:RDF>
  </metadata>
  <sodipodi:namedview
     inkscape:document-rotation="0"
     pagecolor="#ffffff"
     bordercolor="#666666"
     borderopacity="1"
     objecttolerance="10"
     gridtolerance="10"
     guidetolerance="10"
     inkscape:pageopacity="0"
     inkscape:pageshadow="2"
     inkscape:window-width="1920"
     inkscape:window-height="1001"
     id="namedview96"
     showgrid="false"
     inkscape:zoom="11.737973"
     inkscape:cx="29.793863"
     inkscape:cy="22.633293"
     inkscape:window-x="-9"
     inkscape:window-y="-9"
     inkscape:window-maximized="1"
     inkscape:current-layer="Group" />
  <!-- Generator: Sketch 51.1 (57501) - http://www.bohemiancoding.com/sketch -->
  <desc
     id="desc82">Created with Sketch.</desc>
  <defs
     id="defs84" />
  <g
     id="Page-1"
     stroke="none"
     stroke-width="1"
     fill="none"
     fill-rule="evenodd">
    <g
       id="Group">
      <circle
         style="fill:#d40000;fill-opacity:1"
         id="Oval"
         fill="#875FC1"
         fill-rule="nonzero"
         cx="25"
         cy="25"
         r="25" />
      <g
         aria-label="FKS"
         transform="matrix(1.6077084,0,0,1.6547201,-16.196722,-15.463146)"
         id="text102"
         style="font-style:normal;font-weight:normal;font-size:32.375px;line-height:1.25;font-family:sans-serif;fill:#ffffff;fill-opacity:1;stroke:none;stroke-width:0.809375">
        <path
           d="m 20.331083,21.114682 h -4.761402 v 2.655762 h 4.091138 v 1.11289 h -4.091138 v 4.533765 h -1.252002 v -9.415307 h 6.013404 z"
           style="font-size:12.95px;fill:#ffffff;stroke-width:0.809375"
           id="path104" />
        <path
           d="M 29.322733,29.417099 H 27.69766 l -3.72439,-4.19231 -0.93584,0.999073 v 3.193237 h -1.252001 v -9.415307 h 1.252001 v 4.913159 l 4.571704,-4.913159 h 1.517579 l -4.204956,4.426269 z"
           style="font-size:12.95px;fill:#ffffff;stroke-width:0.809375"
           id="path106" />
        <path
           d="m 37.574564,26.729721 q 0,0.550122 -0.259253,1.087598 -0.25293,0.537475 -0.714527,0.910547 -0.505859,0.404687 -1.182446,0.632324 -0.670264,0.227637 -1.61875,0.227637 -1.018042,0 -1.83374,-0.189698 -0.809375,-0.189697 -1.650366,-0.562768 v -1.568164 h 0.08853 q 0.714526,0.594384 1.650366,0.91687 0.93584,0.322485 1.757862,0.322485 1.163476,0 1.808447,-0.436304 0.651294,-0.436303 0.651294,-1.163476 0,-0.626001 -0.309839,-0.923193 -0.303516,-0.297193 -0.929517,-0.461597 -0.474243,-0.126465 -1.030688,-0.208667 -0.550122,-0.0822 -1.1698,-0.208667 -1.252002,-0.265576 -1.859033,-0.904224 -0.600708,-0.64497 -0.600708,-1.675659 0,-1.182446 0.999072,-1.934912 0.999072,-0.758789 2.53562,-0.758789 0.992749,0 1.821094,0.189697 0.828345,0.189698 1.466992,0.46792 v 1.479639 h -0.08852 q -0.537476,-0.455274 -1.416406,-0.752466 -0.872608,-0.303516 -1.789478,-0.303516 -1.005395,0 -1.61875,0.417334 -0.607031,0.417334 -0.607031,1.074952 0,0.588061 0.303515,0.923193 0.303516,0.335132 1.068628,0.512182 0.404688,0.08853 1.15083,0.214991 0.746143,0.126465 1.264649,0.259253 1.049658,0.278222 1.58081,0.840991 0.531153,0.562768 0.531153,1.574487 z"
           style="font-size:12.95px;fill:#ffffff;stroke-width:0.809375"
           id="path108" />
      </g>
    </g>
  </g>
</svg>
