<svg id="Layer_1" data-name="Layer 1" xmlns="http://www.w3.org/2000/svg" viewBox="0 0 480.5 480.5"><defs><style>.cls-1{fill:#5b66a6;}.cls-2{fill:#fff;}</style></defs><title>List1</title><path class="cls-1" d="M419.19,497.31H93.26A77.28,77.28,0,0,1,16,420V94.1A77.28,77.28,0,0,1,93.26,16.81H419.19A77.29,77.29,0,0,1,496.48,94.1V420a77.29,77.29,0,0,1-77.29,77.29Zm0,0" transform="translate(-15.98 -16.81)"/><path class="cls-2" d="M422.53,146.16H256.23a9.23,9.23,0,1,1,0-18.45h166.3a9.23,9.23,0,1,1,0,18.45Zm0,0" transform="translate(-15.98 -16.81)"/><path class="cls-2" d="M422.53,275.52H256.23a9.23,9.23,0,1,1,0-18.46h166.3a9.23,9.23,0,1,1,0,18.46Zm0,0" transform="translate(-15.98 -16.81)"/><path class="cls-2" d="M422.53,404.91H256.23a9.25,9.25,0,0,1,0-18.5h166.3a9.25,9.25,0,0,1,0,18.5Zm0,0" transform="translate(-15.98 -16.81)"/><path class="cls-2" d="M127.5,173.91a9.36,9.36,0,0,1-5.54-1.85L79.73,140.35a9.23,9.23,0,1,1,11.09-14.76l35.33,26.48,57.71-67.36a9.25,9.25,0,0,1,14,12.05l-63.34,73.91a9.3,9.3,0,0,1-7.05,3.24Zm0,0" transform="translate(-15.98 -16.81)"/><path class="cls-2" d="M127.5,303.26a9.36,9.36,0,0,1-5.54-1.85L79.73,269.74a9.25,9.25,0,1,1,11.09-14.8l35.33,26.48,57.71-67.36a9.25,9.25,0,1,1,14,12.05L134.55,300a9.3,9.3,0,0,1-7.05,3.24Zm0,0" transform="translate(-15.98 -16.81)"/><path class="cls-2" d="M127.5,441.86A9.36,9.36,0,0,1,122,440L79.73,408.3a9.23,9.23,0,1,1,11.09-14.76L126.15,420l57.71-67.36a9.25,9.25,0,1,1,14,12l-63.34,73.91a9.3,9.3,0,0,1-7.05,3.24Zm0,0" transform="translate(-15.98 -16.81)"/></svg>