<svg id="Layer_1" data-name="Layer 1" xmlns="http://www.w3.org/2000/svg" viewBox="0 0 506.4 321.32"><defs><style>.cls-1{fill:#5aa692;}</style></defs><title>Text</title><path class="cls-1" d="M99.44,92.44,2.8,408.55H76.86l22.58-81.28h90.32l24.38,81.28h77L192.92,92.44ZM109.83,274.2l18.74-67.73c5.19-18.29,9.93-42.23,14.67-61h0c4.75,18.74,10.39,42.23,16,61l19.64,67.73Z" transform="translate(-2.8 -92.44)"/><path class="cls-1" d="M505.92,272.91c0-54.08-24.43-99.15-101-99.15-41.82,0-73.29,11.29-89.26,20.21l13.15,46c15.08-9.35,39.94-17.39,63.4-17.39,35.29,0,41.81,17.39,41.81,29.65v3.25c-81.24-.43-134.77,28.23-134.77,87.86,0,36.6,27.7,70.38,74.17,70.38,27.25,0,50.71-9.8,65.8-28.14h1.42l4.22,23H509.2c-2.31-12.72-3.28-33.87-3.28-55.93ZM436.43,325a50.13,50.13,0,0,1-1.4,12.26c-4.68,14.57-19.24,26.28-37.15,26.28-16,0-28.13-8.89-28.13-27.25,0-27.68,29.1-36.6,66.68-36.15Zm0,0" transform="translate(-2.8 -92.44)"/></svg>